<svg xmlns="http://www.w3.org/2000/svg" width="575.983" height="609.901" viewBox="0 0 575.983 609.901">
  <g id="Whos_it_for_Illustartion" transform="translate(3195.098 8973.989)">
    <g id="Path_620" data-name="Path 620">
      <path id="Path_2477" data-name="Path 2477" d="M-2675.488-8402.122c.124.394,0,28.157,0,28.157l2.721,2.361h-9.646l.247-31.567Z" fill="#4f86d9"/>
    </g>
    <g id="Path_621" data-name="Path 621">
      <path id="Path_2478" data-name="Path 2478" d="M-2696.268-8402.122c-.124.394,0,28.157,0,28.157l-2.721,2.361h9.646l-.247-31.567Z" fill="#4f86d9"/>
    </g>
    <g id="Ellipse_213" data-name="Ellipse 213" opacity="0.1" style="isolation: isolate">
      <ellipse id="Ellipse_1375" data-name="Ellipse 1375" cx="29.428" cy="7.836" rx="29.428" ry="7.836" transform="translate(-2714.457 -8379.76)" fill="#4f86d9"/>
    </g>
    <g id="Path_622" data-name="Path 622">
      <path id="Path_2479" data-name="Path 2479" d="M-2687.347-8486.969l-44.281,32.172a4,4,0,0,0-1.453,4.472l16.914,52.057a4,4,0,0,0,3.8,2.764h54.734a4,4,0,0,0,3.8-2.764l16.914-52.057a4,4,0,0,0-1.453-4.472l-44.273-32.172A4,4,0,0,0-2687.347-8486.969Z" fill="#c7d7f0"/>
    </g>
    <g id="Path_623" data-name="Path 623">
      <path id="Path_2480" data-name="Path 2480" d="M-2981.077-8574.617c.124.394,0,28.157,0,28.157l2.721,2.361H-2988l.247-31.567Z" fill="#4f86d9"/>
    </g>
    <g id="Path_624" data-name="Path 624">
      <path id="Path_2481" data-name="Path 2481" d="M-3001.857-8574.617c-.124.394,0,28.157,0,28.157l-2.721,2.361h9.646l-.247-31.567Z" fill="#4f86d9"/>
    </g>
    <g id="Rectangle_376" data-name="Rectangle 376">
      <rect id="Rectangle_1394" data-name="Rectangle 1394" width="82.453" height="82.453" rx="6.465" transform="matrix(0.996, -0.085, 0.085, 0.996, -3035.196, -8648.004)" fill="#c7d7f0"/>
    </g>
    <g id="Ellipse_214" data-name="Ellipse 214">
      <circle id="Ellipse_1376" data-name="Ellipse 1376" cx="6.431" cy="6.431" r="6.431" transform="translate(-3002.397 -8624.255)" fill="#4f86d9"/>
    </g>
    <g id="Ellipse_215" data-name="Ellipse 215">
      <circle id="Ellipse_1377" data-name="Ellipse 1377" cx="6.431" cy="6.431" r="6.431" transform="translate(-2975.024 -8624.255)" fill="#4f86d9"/>
    </g>
    <g id="Path_625" data-name="Path 625">
      <path id="Path_2482" data-name="Path 2482" d="M-2982.149-8601.66a8.779,8.779,0,0,1-7.754-4.639,2,2,0,0,1,.822-2.705,2,2,0,0,1,2.705.822,4.737,4.737,0,0,0,2.823,2.318,4.739,4.739,0,0,0,3.638-.355,2,2,0,0,1,2.705.821,2,2,0,0,1-.822,2.705A8.725,8.725,0,0,1-2982.149-8601.66Z" fill="#4f86d9"/>
    </g>
    <g id="Ellipse_216" data-name="Ellipse 216" opacity="0.05" style="isolation: isolate">
      <ellipse id="Ellipse_1378" data-name="Ellipse 1378" cx="29.428" cy="7.836" rx="29.428" ry="7.836" transform="translate(-3033.279 -8398.978)" fill="#4f86d9"/>
    </g>
    <g id="Ellipse_217" data-name="Ellipse 217" opacity="0.1" style="isolation: isolate">
      <ellipse id="Ellipse_1379" data-name="Ellipse 1379" cx="29.428" cy="7.836" rx="29.428" ry="7.836" transform="translate(-3020.046 -8552.255)" fill="#4f86d9"/>
    </g>
    <g id="Path_626" data-name="Path 626">
      <path id="Path_2483" data-name="Path 2483" d="M-3144.348-8414.226c.123.393,0,28.156,0,28.156l2.72,2.361h-9.646l.248-31.567Z" fill="#4f86d9"/>
    </g>
    <g id="Path_627" data-name="Path 627">
      <path id="Path_2484" data-name="Path 2484" d="M-3165.128-8414.226c-.124.393,0,28.156,0,28.156l-2.721,2.361h9.646l-.247-31.567Z" fill="#4f86d9"/>
    </g>
    <g id="Rectangle_377" data-name="Rectangle 377">
      <rect id="Rectangle_1395" data-name="Rectangle 1395" width="82.484" height="82.484" rx="6.467" transform="translate(-3195.098 -8491.283)" fill="#c7d7f0"/>
    </g>
    <g id="Ellipse_218" data-name="Ellipse 218">
      <circle id="Ellipse_1380" data-name="Ellipse 1380" cx="6.431" cy="6.431" r="6.431" transform="translate(-3173.974 -8470.655)" fill="#4f86d9"/>
    </g>
    <g id="Ellipse_219" data-name="Ellipse 219">
      <circle id="Ellipse_1381" data-name="Ellipse 1381" cx="6.431" cy="6.431" r="6.431" transform="translate(-3146.601 -8470.655)" fill="#4f86d9"/>
    </g>
    <g id="Path_628" data-name="Path 628">
      <path id="Path_2485" data-name="Path 2485" d="M-3153.856-8448.271a8.746,8.746,0,0,1-6.2-2.564,2,2,0,0,1,0-2.827,2,2,0,0,1,2.827,0,4.78,4.78,0,0,0,6.752,0,2,2,0,0,1,2.827,0,2,2,0,0,1,0,2.827A8.745,8.745,0,0,1-3153.856-8448.271Z" fill="#4f86d9"/>
    </g>
    <g id="Ellipse_220" data-name="Ellipse 220" opacity="0.1" style="isolation: isolate">
      <ellipse id="Ellipse_1382" data-name="Ellipse 1382" cx="29.428" cy="7.836" rx="29.428" ry="7.836" transform="translate(-3183.317 -8391.863)" fill="#4f86d9"/>
    </g>
    <g id="Path_629" data-name="Path 629">
      <path id="Path_2486" data-name="Path 2486" d="M-2832.632-8414.226c.124.393,0,28.156,0,28.156l2.721,2.361h-9.646l.247-31.567Z" fill="#4f86d9"/>
    </g>
    <g id="Path_630" data-name="Path 630">
      <path id="Path_2487" data-name="Path 2487" d="M-2853.412-8414.226c-.124.393,0,28.156,0,28.156l-2.721,2.361h9.646l-.247-31.567Z" fill="#4f86d9"/>
    </g>
    <g id="Rectangle_378" data-name="Rectangle 378">
      <rect id="Rectangle_1396" data-name="Rectangle 1396" width="82.484" height="82.484" rx="6.467" transform="translate(-2883.382 -8491.283)" fill="#c7d7f0"/>
    </g>
    <g id="Ellipse_221" data-name="Ellipse 221">
      <circle id="Ellipse_1383" data-name="Ellipse 1383" cx="6.431" cy="6.431" r="6.431" transform="translate(-2857.467 -8468.208)" fill="#4f86d9"/>
    </g>
    <g id="Ellipse_222" data-name="Ellipse 222">
      <circle id="Ellipse_1384" data-name="Ellipse 1384" cx="6.431" cy="6.431" r="6.431" transform="translate(-2830.094 -8468.208)" fill="#4f86d9"/>
    </g>
    <g id="Path_631" data-name="Path 631">
      <path id="Path_2488" data-name="Path 2488" d="M-2836.207-8447.05a8.748,8.748,0,0,1-6.191-2.552,2,2,0,0,1-.007-2.827,2,2,0,0,1,2.827-.006,4.782,4.782,0,0,0,6.754-.015,2,2,0,0,1,2.827-.006,2,2,0,0,1,.005,2.827A8.746,8.746,0,0,1-2836.207-8447.05Z" fill="#4f86d9"/>
    </g>
    <g id="Ellipse_223" data-name="Ellipse 223" opacity="0.1" style="isolation: isolate">
      <ellipse id="Ellipse_1385" data-name="Ellipse 1385" cx="29.428" cy="7.836" rx="29.428" ry="7.836" transform="translate(-2871.601 -8391.863)" fill="#4f86d9"/>
    </g>
    <g id="Path_632" data-name="Path 632">
      <path id="Path_2489" data-name="Path 2489" d="M-2993.7-8417.8c.123.394,0,24.383,0,24.383l2.72,2.541-9.646-.18.248-26.5Z" fill="#3c3d49"/>
    </g>
    <g id="Path_633" data-name="Path 633">
      <path id="Path_2490" data-name="Path 2490" d="M-3014.479-8417.8c-.124.394,0,24.383,0,24.383l-2.721,2.541,9.646-.18-.247-26.5Z" fill="#3c3d49"/>
    </g>
    <g id="Path_247" data-name="Path 247">
      <g id="Path_634" data-name="Path 634">
        <path id="Path_2491" data-name="Path 2491" d="M-3009.145-8495.683a6.046,6.046,0,0,1,8.258-2.219,6.048,6.048,0,0,1,2.218,2.219l20.5,35.5,20.5,35.5a6.049,6.049,0,0,1-2.213,8.262,6.047,6.047,0,0,1-3.025.81h-82a6.047,6.047,0,0,1-6.049-6.046,6.053,6.053,0,0,1,.81-3.025l20.5-35.5Z" fill="#719de0"/>
      </g>
    </g>
    <g id="Group_582" data-name="Group 582">
      <g id="Ellipse_224" data-name="Ellipse 224">
        <circle id="Ellipse_1386" data-name="Ellipse 1386" cx="6.431" cy="6.431" r="6.431" transform="translate(-3019.125 -8457.776)" fill="#3c3d49"/>
      </g>
      <g id="Ellipse_225" data-name="Ellipse 225">
        <circle id="Ellipse_1387" data-name="Ellipse 1387" cx="6.431" cy="6.431" r="6.431" transform="translate(-2994.985 -8457.776)" fill="#3c3d49"/>
      </g>
    </g>
    <g id="Path_635" data-name="Path 635">
      <path id="Path_2492" data-name="Path 2492" d="M-3000.374-8435.222a8.781,8.781,0,0,1-7.627-4.408,2,2,0,0,1,.74-2.729,2,2,0,0,1,2.729.74,4.78,4.78,0,0,0,6.517,1.77,2,2,0,0,1,2.728.74,2,2,0,0,1-.74,2.729A8.718,8.718,0,0,1-3000.374-8435.222Z" fill="#3c3d49"/>
    </g>
    <g id="Ellipse_226" data-name="Ellipse 226" opacity="0.05" style="isolation: isolate">
      <ellipse id="Ellipse_1388" data-name="Ellipse 1388" cx="29.428" cy="7.836" rx="29.428" ry="7.836" transform="translate(-3174.621 -8549.318)" fill="#4f86d9"/>
    </g>
    <g id="Path_636" data-name="Path 636">
      <path id="Path_2493" data-name="Path 2493" d="M-3135.041-8568.142c.124.394,0,24.383,0,24.383l2.72,2.541-9.646-.181.248-26.5Z" fill="#3c3d49"/>
    </g>
    <g id="Path_637" data-name="Path 637">
      <path id="Path_2494" data-name="Path 2494" d="M-3155.821-8568.142c-.124.394,0,24.383,0,24.383l-2.721,2.541,9.646-.181-.247-26.5Z" fill="#3c3d49"/>
    </g>
    <g id="Path_247-2" data-name="Path 247-2">
      <g id="Path_638" data-name="Path 638">
        <path id="Path_2495" data-name="Path 2495" d="M-3150.487-8646.024a6.047,6.047,0,0,1,8.259-2.217,6.041,6.041,0,0,1,2.218,2.217l20.5,35.5,20.5,35.506a6.049,6.049,0,0,1-2.213,8.262,6.048,6.048,0,0,1-3.025.81h-82a6.048,6.048,0,0,1-6.049-6.046,6.053,6.053,0,0,1,.81-3.025l20.5-35.506Z" fill="#719de0"/>
      </g>
    </g>
    <g id="Group_583" data-name="Group 583">
      <g id="Ellipse_227" data-name="Ellipse 227">
        <circle id="Ellipse_1389" data-name="Ellipse 1389" cx="6.431" cy="6.431" r="6.431" transform="translate(-3163.931 -8598.692)" fill="#3c3d49"/>
      </g>
      <g id="Ellipse_228" data-name="Ellipse 228">
        <circle id="Ellipse_1390" data-name="Ellipse 1390" cx="6.431" cy="6.431" r="6.431" transform="translate(-3139.791 -8598.692)" fill="#3c3d49"/>
      </g>
    </g>
    <g id="Path_639" data-name="Path 639">
      <path id="Path_2496" data-name="Path 2496" d="M-3145.43-8576.308a8.745,8.745,0,0,1-6.2-2.565,2,2,0,0,1,0-2.827,2,2,0,0,1,2.827,0,4.781,4.781,0,0,0,6.752,0,2,2,0,0,1,2.827,0,2,2,0,0,1,0,2.827A8.746,8.746,0,0,1-3145.43-8576.308Z" fill="#3c3d49"/>
    </g>
    <g id="Path_640" data-name="Path 640">
      <path id="Path_2497" data-name="Path 2497" d="M-2663.732-8568.986c.124.394,0,28.157,0,28.157l2.721,2.361h-9.646l.247-31.567Z" fill="#4f86d9"/>
    </g>
    <g id="Path_641" data-name="Path 641">
      <path id="Path_2498" data-name="Path 2498" d="M-2684.512-8568.986c-.123.394,0,28.157,0,28.157l-2.72,2.361h9.646l-.248-31.567Z" fill="#4f86d9"/>
    </g>
    <g id="Rectangle_379" data-name="Rectangle 379">
      <rect id="Rectangle_1397" data-name="Rectangle 1397" width="82.484" height="82.484" rx="6.467" transform="matrix(0.999, -0.042, 0.042, 0.999, -2716.182, -8644.271)" fill="#c7d7f0"/>
    </g>
    <g id="Ellipse_229" data-name="Ellipse 229">
      <circle id="Ellipse_1391" data-name="Ellipse 1391" cx="6.431" cy="6.431" r="6.431" transform="translate(-2698.147 -8606.729)" fill="#4f86d9"/>
    </g>
    <g id="Ellipse_230" data-name="Ellipse 230">
      <circle id="Ellipse_1392" data-name="Ellipse 1392" cx="6.431" cy="6.431" r="6.431" transform="translate(-2670.774 -8606.729)" fill="#4f86d9"/>
    </g>
    <g id="Path_642" data-name="Path 642">
      <path id="Path_2499" data-name="Path 2499" d="M-2678.58-8584.081a8.732,8.732,0,0,1-3.866-.906,2,2,0,0,1-.911-2.675,2,2,0,0,1,2.677-.912,4.743,4.743,0,0,0,3.646.235,4.745,4.745,0,0,0,2.746-2.412,2,2,0,0,1,2.676-.911,2,2,0,0,1,.911,2.676,8.716,8.716,0,0,1-5.044,4.433A8.792,8.792,0,0,1-2678.58-8584.081Z" fill="#4f86d9"/>
    </g>
    <g id="Ellipse_231" data-name="Ellipse 231" opacity="0.1" style="isolation: isolate">
      <ellipse id="Ellipse_1393" data-name="Ellipse 1393" cx="29.428" cy="7.836" rx="29.428" ry="7.836" transform="translate(-2702.7 -8546.624)" fill="#4f86d9"/>
    </g>
    <g id="Ellipse_232" data-name="Ellipse 232">
      <circle id="Ellipse_1394" data-name="Ellipse 1394" cx="6.431" cy="6.431" r="6.431" transform="translate(-2712.369 -8450.042)" fill="#4f86d9"/>
    </g>
    <g id="Ellipse_233" data-name="Ellipse 233">
      <circle id="Ellipse_1395" data-name="Ellipse 1395" cx="6.431" cy="6.431" r="6.431" transform="translate(-2684.996 -8450.042)" fill="#4f86d9"/>
    </g>
    <g id="Path_643" data-name="Path 643">
      <path id="Path_2500" data-name="Path 2500" d="M-2693.175-8427.042a8.846,8.846,0,0,1-2.408-.337,2,2,0,0,1-1.377-2.469,2,2,0,0,1,2.468-1.377,4.74,4.74,0,0,0,3.629-.425,4.736,4.736,0,0,0,2.267-2.864,2,2,0,0,1,2.468-1.378,2,2,0,0,1,1.378,2.469,8.714,8.714,0,0,1-4.164,5.266A8.726,8.726,0,0,1-2693.175-8427.042Z" fill="#4f86d9"/>
    </g>
    <g id="Path_644" data-name="Path 644">
      <path id="Path_2501" data-name="Path 2501" d="M-3134.1-8731.457c.124.394,0,28.158,0,28.158l2.721,2.359h-9.646l.247-31.566Z" fill="#4f86d9"/>
    </g>
    <g id="Path_645" data-name="Path 645">
      <path id="Path_2502" data-name="Path 2502" d="M-3154.885-8731.457c-.123.394,0,28.158,0,28.158l-2.72,2.359h9.646l-.248-31.566Z" fill="#4f86d9"/>
    </g>
    <g id="Ellipse_234" data-name="Ellipse 234" opacity="0.1" style="isolation: isolate">
      <ellipse id="Ellipse_1396" data-name="Ellipse 1396" cx="29.428" cy="7.836" rx="29.428" ry="7.836" transform="translate(-3173.073 -8709.095)" fill="#4f86d9"/>
    </g>
    <g id="Path_646" data-name="Path 646">
      <path id="Path_2503" data-name="Path 2503" d="M-3148.059-8816.163l-42.887,34.008a4,4,0,0,0-1.263,4.53l19.091,51.3a4,4,0,0,0,3.917,2.6l54.686-2.3a4,4,0,0,0,3.684-2.922l14.71-52.728a4,4,0,0,0-1.64-4.407l-45.6-30.279A4,4,0,0,0-3148.059-8816.163Z" fill="#93b4e6"/>
    </g>
    <g id="Ellipse_235" data-name="Ellipse 235">
      <circle id="Ellipse_1397" data-name="Ellipse 1397" cx="6.431" cy="6.431" r="6.431" transform="translate(-3158.94 -8771.261)" fill="#4f86d9"/>
    </g>
    <g id="Ellipse_236" data-name="Ellipse 236">
      <circle id="Ellipse_1398" data-name="Ellipse 1398" cx="6.431" cy="6.431" r="6.431" transform="translate(-3131.567 -8771.261)" fill="#4f86d9"/>
    </g>
    <g id="Path_647" data-name="Path 647">
      <path id="Path_2504" data-name="Path 2504" d="M-3138.689-8749.2a8.786,8.786,0,0,1-2.665-.415,8.711,8.711,0,0,1-5.134-4.326,2,2,0,0,1,.855-2.693,2,2,0,0,1,2.7.854,4.733,4.733,0,0,0,2.794,2.354,4.739,4.739,0,0,0,3.641-.312,2,2,0,0,1,2.694.856,2,2,0,0,1-.855,2.694A8.735,8.735,0,0,1-3138.689-8749.2Z" fill="#4f86d9"/>
    </g>
    <g id="Path_648" data-name="Path 648">
      <path id="Path_2505" data-name="Path 2505" d="M-2811-8885.241c.124.394,0,28.157,0,28.157l2.721,2.36h-9.647l.247-31.566Z" fill="#4f86d9"/>
    </g>
    <g id="Path_649" data-name="Path 649">
      <path id="Path_2506" data-name="Path 2506" d="M-2831.774-8885.241c-.124.394,0,28.157,0,28.157l-2.72,2.36h9.646l-.248-31.566Z" fill="#4f86d9"/>
    </g>
    <g id="Rectangle_380" data-name="Rectangle 380">
      <rect id="Rectangle_1398" data-name="Rectangle 1398" width="82.484" height="82.484" rx="6.467" transform="matrix(0.999, -0.042, 0.042, 0.999, -2863.445, -8960.526)" fill="#c7d7f0"/>
    </g>
    <g id="Ellipse_237" data-name="Ellipse 237">
      <circle id="Ellipse_1399" data-name="Ellipse 1399" cx="6.431" cy="6.431" r="6.431" transform="translate(-2835.83 -8927.712)" fill="#4f86d9"/>
    </g>
    <g id="Ellipse_238" data-name="Ellipse 238">
      <circle id="Ellipse_1400" data-name="Ellipse 1400" cx="6.431" cy="6.431" r="6.431" transform="translate(-2808.457 -8927.712)" fill="#4f86d9"/>
    </g>
    <g id="Path_650" data-name="Path 650">
      <path id="Path_2507" data-name="Path 2507" d="M-2814.553-8906.146a8.781,8.781,0,0,1-7.743-4.619,2,2,0,0,1,.814-2.707,2,2,0,0,1,2.707.814,4.781,4.781,0,0,0,6.467,1.947,2,2,0,0,1,2.706.816,2,2,0,0,1-.815,2.706A8.721,8.721,0,0,1-2814.553-8906.146Z" fill="#4f86d9"/>
    </g>
    <g id="Ellipse_239" data-name="Ellipse 239" opacity="0.1" style="isolation: isolate">
      <ellipse id="Ellipse_1401" data-name="Ellipse 1401" cx="29.428" cy="7.836" rx="29.428" ry="7.836" transform="translate(-2853.197 -8720.602)" fill="#4f86d9"/>
    </g>
    <g id="Ellipse_240" data-name="Ellipse 240" opacity="0.1" style="isolation: isolate">
      <ellipse id="Ellipse_1402" data-name="Ellipse 1402" cx="29.428" cy="7.836" rx="29.428" ry="7.836" transform="translate(-2849.963 -8862.879)" fill="#4f86d9"/>
    </g>
    <g id="Path_651" data-name="Path 651">
      <path id="Path_2508" data-name="Path 2508" d="M-2811-8588.4c.124.394,0,28.157,0,28.157l2.721,2.36h-9.647l.247-31.566Z" fill="#4f86d9"/>
    </g>
    <g id="Path_652" data-name="Path 652">
      <path id="Path_2509" data-name="Path 2509" d="M-2831.774-8588.4c-.124.394,0,28.157,0,28.157l-2.72,2.36h9.646l-.248-31.566Z" fill="#4f86d9"/>
    </g>
    <g id="Rectangle_381" data-name="Rectangle 381">
      <rect id="Rectangle_1399" data-name="Rectangle 1399" width="82.484" height="82.484" rx="6.467" transform="translate(-2861.744 -8665.457)" fill="#93b4e6"/>
    </g>
    <g id="Ellipse_241" data-name="Ellipse 241">
      <circle id="Ellipse_1403" data-name="Ellipse 1403" cx="6.431" cy="6.431" r="6.431" transform="translate(-2840.62 -8644.258)" fill="#4f86d9"/>
    </g>
    <g id="Ellipse_242" data-name="Ellipse 242">
      <circle id="Ellipse_1404" data-name="Ellipse 1404" cx="6.431" cy="6.431" r="6.431" transform="translate(-2813.247 -8644.258)" fill="#4f86d9"/>
    </g>
    <g id="Ellipse_243" data-name="Ellipse 243" opacity="0.1" style="isolation: isolate">
      <ellipse id="Ellipse_1405" data-name="Ellipse 1405" cx="29.428" cy="7.836" rx="29.428" ry="7.836" transform="translate(-2849.963 -8566.037)" fill="#4f86d9"/>
    </g>
    <g id="Group_4065" data-name="Group 4065">
      <g id="Path_653" data-name="Path 653">
        <path id="Path_2510" data-name="Path 2510" d="M-2652.549-8735.85c.123.393,0,28.156,0,28.156l2.72,2.361h-9.646l.248-31.567Z" fill="#4f86d9"/>
      </g>
      <g id="Path_654" data-name="Path 654">
        <path id="Path_2511" data-name="Path 2511" d="M-2673.329-8735.85c-.124.393,0,28.156,0,28.156l-2.721,2.361h9.646l-.247-31.567Z" fill="#4f86d9"/>
      </g>
      <g id="Rectangle_382" data-name="Rectangle 382">
        <rect id="Rectangle_1400" data-name="Rectangle 1400" width="82.484" height="82.484" rx="6.467" transform="matrix(0.999, -0.042, 0.042, 0.999, -2705, -8811.135)" fill="#c7d7f0"/>
      </g>
      <g id="Ellipse_244" data-name="Ellipse 244">
        <circle id="Ellipse_1406" data-name="Ellipse 1406" cx="6.431" cy="6.431" r="6.431" transform="translate(-2688.808 -8778.32)" fill="#4f86d9"/>
      </g>
      <g id="Ellipse_245" data-name="Ellipse 245">
        <circle id="Ellipse_1407" data-name="Ellipse 1407" cx="6.431" cy="6.431" r="6.431" transform="translate(-2661.435 -8778.32)" fill="#4f86d9"/>
      </g>
      <g id="Path_655" data-name="Path 655">
        <path id="Path_2512" data-name="Path 2512" d="M-2668.061-8756.444a8.761,8.761,0,0,1-3.35-.669,2,2,0,0,1-1.084-2.61,2,2,0,0,1,2.61-1.084,4.752,4.752,0,0,0,3.655,0,4.74,4.74,0,0,0,2.581-2.587,2,2,0,0,1,2.611-1.085,2,2,0,0,1,1.084,2.61,8.711,8.711,0,0,1-4.743,4.753A8.74,8.74,0,0,1-2668.061-8756.444Z" fill="#4f86d9"/>
      </g>
      <g id="Ellipse_246" data-name="Ellipse 246" opacity="0.1" style="isolation: isolate">
        <ellipse id="Ellipse_1408" data-name="Ellipse 1408" cx="29.428" cy="7.836" rx="29.428" ry="7.836" transform="translate(-2691.518 -8713.487)" fill="#4f86d9"/>
      </g>
    </g>
    <g id="Path_656" data-name="Path 656">
      <path id="Path_2513" data-name="Path 2513" d="M-2813.621-8739.425c.124.394,0,24.383,0,24.383l2.721,2.541-9.646-.181.247-26.5Z" fill="#3c3d49"/>
    </g>
    <g id="Path_657" data-name="Path 657">
      <path id="Path_2514" data-name="Path 2514" d="M-2834.4-8739.425c-.123.394,0,24.383,0,24.383l-2.72,2.541,9.646-.181-.248-26.5Z" fill="#3c3d49"/>
    </g>
    <g id="Path_247-3" data-name="Path 247-3">
      <g id="Path_658" data-name="Path 658">
        <path id="Path_2515" data-name="Path 2515" d="M-2829.063-8817.307a6.046,6.046,0,0,1,8.259-2.218,6.045,6.045,0,0,1,2.218,2.218l20.5,35.5,20.5,35.5a6.047,6.047,0,0,1-2.212,8.261,6.041,6.041,0,0,1-3.027.81h-82a6.047,6.047,0,0,1-6.047-6.048,6.051,6.051,0,0,1,.809-3.022l20.5-35.5Z" fill="#719de0"/>
      </g>
    </g>
    <g id="Group_584" data-name="Group 584">
      <g id="Ellipse_247" data-name="Ellipse 247">
        <circle id="Ellipse_1409" data-name="Ellipse 1409" cx="6.431" cy="6.431" r="6.431" transform="translate(-2838.272 -8775.636)" fill="#3c3d49"/>
      </g>
      <g id="Ellipse_248" data-name="Ellipse 248">
        <circle id="Ellipse_1410" data-name="Ellipse 1410" cx="6.431" cy="6.431" r="6.431" transform="translate(-2814.132 -8775.636)" fill="#3c3d49"/>
      </g>
    </g>
    <g id="Path_659" data-name="Path 659">
      <path id="Path_2516" data-name="Path 2516" d="M-2820.235-8753.694a8.781,8.781,0,0,1-7.8-4.729,2,2,0,0,1,.853-2.7,2,2,0,0,1,2.7.854,4.783,4.783,0,0,0,6.44,2.038,2,2,0,0,1,2.694.854,2,2,0,0,1-.854,2.7A8.717,8.717,0,0,1-2820.235-8753.694Z" fill="#3c3d49"/>
    </g>
    <g id="Ellipse_249" data-name="Ellipse 249" opacity="0.1" style="isolation: isolate">
      <ellipse id="Ellipse_1411" data-name="Ellipse 1411" cx="29.428" cy="7.836" rx="29.428" ry="7.836" transform="translate(-3003.182 -8714.208)" fill="#4f86d9"/>
    </g>
    <g id="Ellipse_250" data-name="Ellipse 250" opacity="0.1" style="isolation: isolate">
      <ellipse id="Ellipse_1412" data-name="Ellipse 1412" cx="29.428" cy="7.836" rx="29.428" ry="7.836" transform="translate(-3169.02 -8863.313)" fill="#4f86d9"/>
    </g>
    <g id="Path_660" data-name="Path 660">
      <path id="Path_2517" data-name="Path 2517" d="M-2968.373-8878.561c.124.394,0,28.157,0,28.157l2.721,2.36h-9.646l.247-31.567Z" fill="#4f86d9"/>
    </g>
    <g id="Path_661" data-name="Path 661">
      <path id="Path_2518" data-name="Path 2518" d="M-2989.153-8878.561c-.124.394,0,28.157,0,28.157l-2.721,2.36h9.646l-.247-31.567Z" fill="#4f86d9"/>
    </g>
    <g id="Rectangle_383" data-name="Rectangle 383">
      <rect id="Rectangle_1401" data-name="Rectangle 1401" width="82.484" height="82.484" rx="6.467" transform="translate(-3019.123 -8956.618)" fill="#c7d7f0"/>
    </g>
    <g id="Ellipse_251" data-name="Ellipse 251">
      <circle id="Ellipse_1413" data-name="Ellipse 1413" cx="6.431" cy="6.431" r="6.431" transform="translate(-2997.288 -8917.517)" fill="#4f86d9"/>
    </g>
    <g id="Ellipse_252" data-name="Ellipse 252">
      <circle id="Ellipse_1414" data-name="Ellipse 1414" cx="6.431" cy="6.431" r="6.431" transform="translate(-2969.915 -8917.517)" fill="#4f86d9"/>
    </g>
    <g id="Path_662" data-name="Path 662">
      <path id="Path_2519" data-name="Path 2519" d="M-2977.17-8895.131a8.745,8.745,0,0,1-6.2-2.565,2,2,0,0,1,0-2.827,2,2,0,0,1,2.827,0,4.78,4.78,0,0,0,6.752,0,2,2,0,0,1,2.827,0,2,2,0,0,1,0,2.827A8.748,8.748,0,0,1-2977.17-8895.131Z" fill="#4f86d9"/>
    </g>
    <g id="Ellipse_253" data-name="Ellipse 253" opacity="0.1" style="isolation: isolate">
      <ellipse id="Ellipse_1415" data-name="Ellipse 1415" cx="29.428" cy="7.836" rx="29.428" ry="7.836" transform="translate(-3007.342 -8856.198)" fill="#4f86d9"/>
    </g>
    <g id="Path_663" data-name="Path 663">
      <path id="Path_2520" data-name="Path 2520" d="M-3129.44-8882.135c.123.393,0,24.383,0,24.383l2.72,2.541-9.646-.181.248-26.5Z" fill="#3c3d49"/>
    </g>
    <g id="Path_664" data-name="Path 664">
      <path id="Path_2521" data-name="Path 2521" d="M-3150.221-8882.135c-.124.393,0,24.383,0,24.383l-2.721,2.541,9.646-.181-.247-26.5Z" fill="#3c3d49"/>
    </g>
    <g id="Path_247-4" data-name="Path 247-4">
      <g id="Path_665" data-name="Path 665">
        <path id="Path_2522" data-name="Path 2522" d="M-3143.064-8960.222a6.047,6.047,0,0,1,8.355-1.825,6.043,6.043,0,0,1,2.11,2.319l18.8,36.432,18.8,36.431a6.049,6.049,0,0,1-2.6,8.149,6.039,6.039,0,0,1-3.06.666l-81.908-3.866a6.049,6.049,0,0,1-5.756-6.328,6.046,6.046,0,0,1,.951-2.98l22.152-34.5Z" fill="#719de0"/>
      </g>
    </g>
    <g id="Group_585" data-name="Group 585">
      <g id="Ellipse_254" data-name="Ellipse 254">
        <circle id="Ellipse_1416" data-name="Ellipse 1416" cx="6.431" cy="6.431" r="6.431" transform="translate(-3154.331 -8914.347)" fill="#3c3d49"/>
      </g>
      <g id="Ellipse_255" data-name="Ellipse 255">
        <circle id="Ellipse_1417" data-name="Ellipse 1417" cx="6.431" cy="6.431" r="6.431" transform="translate(-3130.191 -8914.347)" fill="#3c3d49"/>
      </g>
    </g>
    <g id="Path_666" data-name="Path 666">
      <path id="Path_2523" data-name="Path 2523" d="M-3134.762-8894.3a8.769,8.769,0,0,1-7.184-3.718,2,2,0,0,1,.483-2.785,2,2,0,0,1,2.786.482,4.779,4.779,0,0,0,6.652,1.154,2,2,0,0,1,2.785.483,2,2,0,0,1-.483,2.786A8.729,8.729,0,0,1-3134.762-8894.3Z" fill="#3c3d49"/>
    </g>
    <g id="Ellipse_256" data-name="Ellipse 256" opacity="0.1" style="isolation: isolate">
      <ellipse id="Ellipse_1418" data-name="Ellipse 1418" cx="29.428" cy="7.836" rx="29.428" ry="7.836" transform="translate(-2704.765 -8874.258)" fill="#4f86d9"/>
    </g>
    <g id="Path_667" data-name="Path 667">
      <path id="Path_2524" data-name="Path 2524" d="M-2665.185-8893.081c.124.393,0,24.383,0,24.383l2.721,2.541-9.646-.181.247-26.5Z" fill="#3c3d49"/>
    </g>
    <g id="Path_668" data-name="Path 668">
      <path id="Path_2525" data-name="Path 2525" d="M-2685.965-8893.081c-.124.393,0,24.383,0,24.383l-2.721,2.541,9.646-.181-.247-26.5Z" fill="#3c3d49"/>
    </g>
    <g id="Path_247-5" data-name="Path 247-5">
      <g id="Path_669" data-name="Path 669">
        <path id="Path_2526" data-name="Path 2526" d="M-2680.631-8970.964a6.048,6.048,0,0,1,8.263-2.213,6.036,6.036,0,0,1,2.214,2.213l20.5,35.5,20.5,35.5a6.047,6.047,0,0,1-2.212,8.261,6.042,6.042,0,0,1-3.026.811h-82a6.047,6.047,0,0,1-6.047-6.048,6.052,6.052,0,0,1,.809-3.023l20.5-35.5Z" fill="#719de0"/>
      </g>
    </g>
    <g id="Group_586" data-name="Group 586">
      <g id="Ellipse_257" data-name="Ellipse 257">
        <circle id="Ellipse_1419" data-name="Ellipse 1419" cx="6.431" cy="6.431" r="6.431" transform="translate(-2696.193 -8925.046)" fill="#3c3d49"/>
      </g>
      <g id="Ellipse_258" data-name="Ellipse 258">
        <circle id="Ellipse_1420" data-name="Ellipse 1420" cx="6.431" cy="6.431" r="6.431" transform="translate(-2672.053 -8925.046)" fill="#3c3d49"/>
      </g>
    </g>
    <g id="Path_670" data-name="Path 670">
      <path id="Path_2527" data-name="Path 2527" d="M-2677.693-8902.66a8.747,8.747,0,0,1-6.2-2.562,2,2,0,0,1,0-2.828,2,2,0,0,1,2.827,0,4.779,4.779,0,0,0,6.75,0,2,2,0,0,1,2.827,0,2,2,0,0,1,0,2.827A8.747,8.747,0,0,1-2677.693-8902.66Z" fill="#3c3d49"/>
    </g>
    <g id="Path_671" data-name="Path 671">
      <path id="Path_2528" data-name="Path 2528" d="M-2963.6-8733.031c.123.394,0,24.383,0,24.383l2.72,2.541-9.646-.181.248-26.5Z" fill="#3c3d49"/>
    </g>
    <g id="Path_672" data-name="Path 672">
      <path id="Path_2529" data-name="Path 2529" d="M-2984.382-8733.031c-.124.394,0,24.383,0,24.383l-2.721,2.541,9.646-.181-.247-26.5Z" fill="#3c3d49"/>
    </g>
    <g id="Path_247-6" data-name="Path 247-6">
      <g id="Path_673" data-name="Path 673">
        <path id="Path_2530" data-name="Path 2530" d="M-2977.484-8811.094a6.049,6.049,0,0,1,8.346-1.878,6.041,6.041,0,0,1,2.123,2.3l19.045,36.306,19.049,36.307a6.048,6.048,0,0,1-2.544,8.165,6.065,6.065,0,0,1-3.056.687l-81.932-3.322a6.046,6.046,0,0,1-5.8-6.288,6.05,6.05,0,0,1,.931-2.987l21.918-34.646Z" fill="#719de0"/>
      </g>
    </g>
    <g id="Ellipse_259" data-name="Ellipse 259">
      <circle id="Ellipse_1421" data-name="Ellipse 1421" cx="6.431" cy="6.431" r="6.431" transform="translate(-2996.381 -8767.034)" fill="#3c3d49"/>
    </g>
    <g id="Path_674" data-name="Path 674">
      <path id="Path_2531" data-name="Path 2531" d="M-2971.265-8750.776a6.431,6.431,0,0,1-6.43,6.432,6.431,6.431,0,0,1-6.431-6.432h0c0-3.552,2.879-1.58,6.43-1.58S-2971.265-8754.328-2971.265-8750.776Z" fill="#3c3d49"/>
    </g>
    <g id="Ellipse_260" data-name="Ellipse 260">
      <circle id="Ellipse_1422" data-name="Ellipse 1422" cx="6.431" cy="6.431" r="6.431" transform="translate(-2972.242 -8767.034)" fill="#3c3d49"/>
    </g>
    <g id="Path_675" data-name="Path 675">
      <path id="Path_2532" data-name="Path 2532" d="M-2813.821-8628.26a6.43,6.43,0,0,1-6.351,6.51,6.431,6.431,0,0,1-6.51-6.351v-.159c0-3.552,2.879-1.58,6.43-1.58S-2813.821-8631.812-2813.821-8628.26Z" fill="#4f86d9"/>
    </g>
  </g>
</svg>
