<svg xmlns="http://www.w3.org/2000/svg" width="130" height="230" viewBox="0 0 183.696 232.316">
    <defs>
        <style>
            .cls-2{fill:#4f86d9}
        </style>
    </defs>
    <g id="Group_3933" transform="translate(-1385.304 -595.684)">
        <g id="Group_3905" opacity="0.1" transform="translate(1408.147 788.886)">
            <g id="Group_3771">
                <ellipse id="Ellipse_1431" cx="73.442" cy="19.557" class="cls-2" rx="73.442" ry="19.557"/>
            </g>
        </g>
        <g id="Group_3906" transform="translate(1488.003 744.801)">
            <path id="Path_2547" d="M6552.2-1977.669c.242.769 0 55.066 0 55.066l5.321 4.616h-18.865l.484-61.734z" class="cls-2" transform="translate(-6538.657 1979.721)"/>
        </g>
        <g id="Group_3907" transform="translate(1455.586 744.801)">
            <path id="Path_2548" d="M6518.348-1977.669c-.241.769 0 55.066 0 55.066l-5.32 4.616h18.865l-.484-61.734z" class="cls-2" transform="translate(-6513.027 1979.721)"/>
        </g>
        <g id="Path_247" transform="translate(1385.304 595.684)">
            <g id="Group_3780">
                <path id="Path_2549" fill="#c7d7f0" d="M6548.328-2092.345a11.827 11.827 0 0 1 16.4-3.295 11.823 11.823 0 0 1 4.049 4.6l35.574 71.856 35.574 71.855a11.827 11.827 0 0 1-5.352 15.846 11.836 11.836 0 0 1-6.007 1.2l-160.036-10.249a11.828 11.828 0 0 1-11.047-12.559 11.816 11.816 0 0 1 1.958-5.8l44.449-66.731z" transform="translate(-6457.458 2097.622)"/>
            </g>
        </g>
        <g id="Group_3908" transform="translate(1441.252 670.308)">
            <g id="Group_3782">
                <g id="Group_3781">
                    <circle id="Ellipse_1434" cx="12.576" cy="12.576" r="12.576" class="cls-2"/>
                </g>
            </g>
            <g id="Group_3784" transform="translate(47.209)">
                <g id="Group_3783">
                    <circle id="Ellipse_1435" cx="12.576" cy="12.576" r="12.576" class="cls-2"/>
                </g>
            </g>
        </g>
        <g id="Group_3909" transform="translate(1464.729 697.376)">
            <g id="Group_3786">
                <path id="Path_2550" d="M6531.307-2003.318a17.041 17.041 0 0 1-9.259-2.741 3.91 3.91 0 0 1-1.168-5.4 3.913 3.913 0 0 1 5.405-1.169 9.266 9.266 0 0 0 7.029 1.279 9.283 9.283 0 0 0 5.876-4.07 3.907 3.907 0 0 1 5.4-1.17 3.908 3.908 0 0 1 1.17 5.4 17.038 17.038 0 0 1-10.795 7.479 17.265 17.265 0 0 1-3.658.392z" class="cls-2" transform="translate(-6520.256 2017.218)"/>
            </g>
        </g>
    </g>
</svg>
