<svg xmlns="http://www.w3.org/2000/svg" width="52.591" height="70" viewBox="0 0 188.237 250.548">
    <defs>
        <style>
            .cls-1{fill:#4f86d9}
        </style>
    </defs>
    <g id="Group_3932" transform="translate(-345.764 -577.452)">
        <g id="Group_3901" transform="translate(455.844 746.709)">
            <path id="Path_2541" d="M6167.673-1976.16c.243.769 0 55.066 0 55.066l5.321 4.616h-18.864l.483-61.735z" class="cls-1" transform="translate(-6154.13 1978.212)"/>
        </g>
        <g id="Group_3902" transform="translate(423.428 746.709)">
            <path id="Path_2542" d="M6133.821-1976.16c-.242.769 0 55.066 0 55.066l-5.321 4.616h18.864l-.483-61.735z" class="cls-1" transform="translate(-6128.5 1978.212)"/>
        </g>
        <g id="Path_340" transform="translate(345.764 577.452)">
            <path id="Path_2543" fill="#a1c5ef" d="M6150.38-2110.1l-80.612 70.523a7.826 7.826 0 0 0-2.041 8.972l42.162 98.459a7.827 7.827 0 0 0 7.894 4.715l106.669-9.673a7.827 7.827 0 0 0 6.917-6.058l23.765-104.436a7.829 7.829 0 0 0-3.607-8.46l-91.982-54.873a7.824 7.824 0 0 0-9.165.831z" transform="translate(-6067.094 2112.037)"/>
        </g>
        <g id="Group_3903" transform="translate(419.031 645.642)">
            <g id="Group_3763" transform="translate(53.533)">
                <circle id="Ellipse_1427" cx="12.576" cy="12.576" r="12.576" class="cls-1"/>
            </g>
            <g id="Group_3764">
                <circle id="Ellipse_1428" cx="12.576" cy="12.576" r="12.576" class="cls-1"/>
            </g>
            <g id="Group_3765" transform="translate(23.699 28.475)">
                <path id="Path_2544" d="M6158.313-2022.475a17.325 17.325 0 0 1-2.481-.179 17.039 17.039 0 0 1-11.291-6.7 3.908 3.908 0 0 1 .788-5.472 3.909 3.909 0 0 1 5.472.788 9.266 9.266 0 0 0 6.146 3.648 9.265 9.265 0 0 0 6.926-1.766 3.912 3.912 0 0 1 5.473.787 3.911 3.911 0 0 1-.786 5.473 17.038 17.038 0 0 1-10.247 3.421z" class="cls-1" transform="translate(-6143.761 2035.608)"/>
            </g>
        </g>
        <g id="Group_3904" opacity="0.1" transform="translate(376.992 788.886)">
            <g id="Group_3769">
                <ellipse id="Ellipse_1430" cx="73.442" cy="19.557" class="cls-1" rx="73.442" ry="19.557"/>
            </g>
        </g>
    </g>
</svg>
